<?xml version="1.0" encoding="utf-8"?>
<!-- Generator: Adobe Illustrator 16.0.0, SVG Export Plug-In . SVG Version: 6.00 Build 0)  -->
<!DOCTYPE svg PUBLIC "-//W3C//DTD SVG 1.1//EN" "http://www.w3.org/Graphics/SVG/1.1/DTD/svg11.dtd">
<svg version="1.1" id="Layer_1" xmlns="http://www.w3.org/2000/svg" xmlns:xlink="http://www.w3.org/1999/xlink" x="0px" y="0px"
	 width="792px" height="612px" viewBox="0 0 792 612" enable-background="new 0 0 792 612" xml:space="preserve">
<g>
	<path fill-rule="evenodd" clip-rule="evenodd" fill="#00AEEF" d="M346.476,494.243c0-29.966-0.017-7.227,0.005-34.798
		c0.028-31.436-0.283-6.797,0.281-38.225c0.333-18.628-5.288-33.799-18.24-47.688c-9.093-9.745-14.891-22.574-23.02-35.368
		c26.984-14.44,51.15-27.651,75.606-40.285c8.833-4.559,14.3,1.343,18.045,8.542c9.35,17.969,11.685,37.364,10.761,57.306
		c-0.229,4.979-0.82,9.948-1.307,15.667c7.971-10.382,10.813-31.376,6.72-48.749c-1.917-8.139-4.572-16.092-6.598-24.204
		c-3.873-15.461,1.556-25.188,16.925-29.646c6.782-1.961,13.86-2.908,22.266-4.611c-16.783-12.96-29.201-27.554-22.467-50.93
		c-14.837,17.392-33.447,26.6-55.656,28.452c-5.408,0.438-10.928,1.074-16.275,0.488c-12.219-1.365-21.406-7.099-24.498-19.901
		c-3.1-12.823,5.926-18.172,14.878-23.102c7.682-4.235,15.697-7.88,23.69-11.513c17.857-8.093,35.906-15.781,53.662-24.097
		c14.771-6.925,23.454-4.145,33.757,8.356c13.749,16.665,28.309,32.775,43.613,48.016c8.871,8.83,13.344,18.855,11.759,30.383
		c-5.375,39.084-19.392,74.212-49.538,101.429c-2.669,2.407-5.024,6.789-5.038,10.264c-0.236,74.177-0.118,41.978-0.008,116.155
		c0,1.174,0.73,2.341,1.411,4.36C424.487,494.243,387.726,494.243,346.476,494.243z"/>
	<path fill-rule="evenodd" clip-rule="evenodd" fill="#00AEEF" d="M325.938,252.016c0.327,11.678-8.642,21.754-22.179,25.504
		c-9.569,2.66-17.253-0.695-22.401-9.246c-7.099-11.79-14.397-23.475-21.031-35.521c-6.656-12.086-3.372-22.599,8.485-29.737
		c14.243-8.58,24.898-7.515,32.633,4.495c8.118,12.61,15.243,25.858,22.643,38.91C325.272,248.513,325.631,251.05,325.938,252.016z"
		/>
	<path fill-rule="evenodd" clip-rule="evenodd" fill="#00AEEF" d="M415.641,162.5c-11.403-20.28-8.453-30.522,10.432-37.732
		c16.949-6.461,26.102-1.552,29.75,16.173c1.751,8.486,3.1,17.05,5.261,29.11C446.142,155.013,431.131,154.745,415.641,162.5z"/>
	<path fill-rule="evenodd" clip-rule="evenodd" fill="#00AEEF" d="M315.654,216.268c-16.808-24.897-16.15-34.177,4.818-45.874
		c14.318-7.994,23.905-2.758,33.039,17.571C341.085,197.254,328.754,206.472,315.654,216.268z"/>
	<path fill-rule="evenodd" clip-rule="evenodd" fill="#00AEEF" d="M366.829,185.824c-12.157-20.108-11.052-30.603,2.785-37.461
		c21.148-10.494,28.905-7.188,39.418,18.712C394.946,173.331,380.776,179.632,366.829,185.824z"/>
</g>
<g>
	<path fill-rule="evenodd" clip-rule="evenodd" fill="#F26522" d="M225.223,292.134c-2.316,1.255-4.031,1.287-6.216-0.376
		c-18.742-14.216-39.879-20.299-63.312-17.852c-27.637,2.879-49.413,16.13-64.979,38.856
		c-14.321,20.913-18.156,44.218-12.604,68.976c1.249,5.566,2.771,11.063,4.171,16.595c2.847,5.315,5.691,10.632,8.537,15.948
		c1.164,1.205,2.412,2.349,3.484,3.635c18.819,22.668,43.027,34.552,72.397,34.284c20.257-0.177,38.864-6.588,54.69-19.899
		c20.127-16.936,31.269-38.447,32.844-64.719c0.217-3.624,1.152-5.636,4.385-7.366c28.896-15.49,144.011-79.808,172.88-95.349
		c-16.81-19.312-11.974-31.119-13.77-29.694c-40.6,32.154-84.242,16.993-84.242,16.993c-3.73,24.053-31.119,31.667-39.361,31.479
		c-12.146,0.189-20.124-17.74-20.124-17.74S241.88,283.156,225.223,292.134z M213.037,366.922
		c-8.384,12.474-16.923,24.837-25.624,37.095c-0.975,1.377-3.146,2.638-4.804,2.69c-15.17,0.485-30.349,0.736-45.526,0.854
		c-1.352,0.01-3.322-1.167-3.977-2.35c-6.718-12.182-13.284-24.451-19.689-36.803c-0.606-1.175-0.361-3.427,0.407-4.569
		c8.591-12.687,17.311-25.268,26.159-37.777c0.806-1.143,2.701-2.108,4.121-2.15c15.304-0.41,30.622-0.667,45.928-0.757
		c1.276,0,3.08,1.257,3.757,2.438c3.438,5.959,6.584,12.093,9.835,18.166c3.244,6.06,6.625,12.074,9.632,18.256
		C213.904,363.328,213.84,365.74,213.037,366.922z"/>
	<path fill-rule="evenodd" clip-rule="evenodd" fill="#F26522" d="M718.344,143.932c-19.448,6.485-38.865,13.051-58.354,19.405
		c-1.734,0.566-4.521,0.59-5.766-0.43c-11.46-9.288-22.724-18.82-33.892-28.462c-0.966-0.825-1.487-3.016-1.194-4.349
		c3.16-14.425,6.463-28.801,9.947-43.147c0.316-1.323,1.922-2.866,3.266-3.346c8.777-3.116,17.645-5.963,26.478-8.919
		c13.861-4.637,27.71-9.313,41.567-13.956c-0.139-0.25-0.271-0.509-0.402-0.768c-8.223-4.861-16.074-10.493-24.705-14.449
		c-23.836-10.906-48.382-11.724-72.606-1.572c-33.927,14.211-55.689,50.209-53.386,87.111c0.171,2.695-0.604,4.152-2.974,5.428
		c-26.707,14.324-53.378,28.69-80.07,43.045c11.202,23.046,40.285,36.595,48.916,59.761c28.267-15.21,38.899-20.97,67.131-36.256
		c4.059-2.191,6.998-2.295,10.907,0.24c9.253,5.987,19.645,9.267,30.463,11.109c33.428,5.7,77.686-10.873,94.42-44.979
		c4.238-8.64,6.896-17.655,7.645-27.713C722.95,142.52,720.619,143.167,718.344,143.932z"/>
</g>
<path fill-rule="evenodd" clip-rule="evenodd" fill="#58595B" d="M400.493,586.507c-39.163,0-78.33-0.229-117.488,0.17
	c-9.283,0.101-13.428-2.519-13.27-12.324c0.149-9.288,4.385-11.77,12.922-11.817c12.011-0.061,26.957,2.779,35.174-3.176
	c7.863-5.705,9.67-20.827,12.41-32.228c2.752-11.452,8.113-15.22,20.119-14.911c34.654,0.919,69.347,0.717,104.011,0.05
	c9.606-0.178,13.571,3.106,16.049,11.929c3.521,12.505,5.104,28.777,13.729,35.666c7.901,6.311,24.052,2.69,36.567,2.697
	c8.958,0.015,10.89,4.625,10.967,12.366c0.076,8.075-2.423,11.786-11.252,11.721C480.454,586.305,440.475,586.496,400.493,586.507z"
	/>
<g>
	<path fill="#5D5E5E" d="M154.819,68.63c-32.348,0-58.663,28.493-58.663,63.505v152.843c5.762-9.936,14.607-15.042,25.484-20.438
		V132.136c0-20.965,14.884-38.021,33.179-38.021h385.068c2.272-7.793,5.841-18.203,11.46-25.485H154.819z"/>
	<path fill="#5D5E5E" d="M679.771,223.245v217.688c0,20.965-14.886,38.019-33.175,38.019H154.819
		c-14.137,0-26.205-10.205-30.973-24.51c-11.943-1.136-19.177-4.697-27.689-13.189v-0.319c0,35.013,26.315,63.502,58.663,63.502
		h491.776c32.342,0,58.659-28.489,58.659-63.502V205.066C694.834,215.734,688.59,219.502,679.771,223.245z"/>
</g>
</svg>
